{"title":"The.Four.Faced.Liar.2010.DvDRip.H264.Feel-Free","uid":5958396,"size":784030962,"categoryP":"video","categoryS":"movies","magnet":"?xt=urn:btih:62ee62c943c5a55342a4820275cb50953ab18c46&amp;dn=The.Four.Faced.Liar.2010.DvDRip.H264.Feel-Free&amp;tr=udp%3A%2F%2Ftracker.openbittorrent.com%3A80&amp;tr=udp%3A%2F%2Fopen.demonii.com%3A1337&amp;tr=udp%3A%2F%2Ftracker.coppersurfer.tk%3A6969&amp;tr=udp%3A%2F%2Fexodus.desync.com%3A6969","seeders":0,"leechers":1,"uploader":"deffjam555","files":10,"time":1289779630,"description":"Genre:Comedy | Drama | Romance\nLanguage:English\nIMDb:http://www.imdb.com/title/tt1174693/\nSource:NTSC.DVDR\n\nGeneral\nComplete name :The.Four.Faced.Liar.2010.DvDRip.H264.Feel-Free\nFormat : MPEG-4\nFormat profile : Base Media\nCodec ID : mp42\nFile size : 745 MiB\nDuration : 1h 27mn\nOverall bit rate : 1 189 Kbps\nVideo #1\nCodec ID : avc1\nCodec ID/Info : Advanced Video Coding\nDuration : 1h 27mn\nBit rate mode : Variable\nBit rate : 708 Kbps\nWidth : 720 pixels\nHeight : 304 pixels\nDisplay aspect ratio : 2.35:1\nFrame rate mode : Constant\nFrame rate : 23.976 fps\nResolution : 24 bits\nColorimetry : 4:2:0\nScan type : Progressive\nBits/(Pixel*Frame) : 0.135\nStream size : 444 MiB (60%)\nAudio #2\nID : 2\nFormat : AAC\nFormat/Info : Advanced Audio Codec\nFormat version : Version 4\nFormat profile : LC\nFormat settings, SBR : No\nCodec ID : 40\nDuration : 1h 27mn\nBit rate mode : Constant\nBit rate : 477 Kbps\nNominal bit rate : 480 Kbps\nChannel(s) : 6 channels\nChannel positions : Front: L C R, Rear: L R, LFE\nSampling rate : 48.0 KHz\nResolution : 16 bits\nStream size : 299 MiB (40%)\n\nPlot:\nA story of love and lies for four twenty-somethings looking to find themselves in New York City. A pair of best friends and a seemingly perfect couple meet at a local Irish pub tucked in the winding streets of the West Village. Through their chance meeting, the four bond and over time all of their relationships with one another morph into love, betrayal and heartbreak for all.\n\n\nscreens\n &lt;a href=&quot;\nhttp://www.rapidhdd.com/images/386592vlcsnap-2010-11-15-12h24m22s136.png&quot; rel=&quot;nofollow&quot; target=&quot;_NEW&quot;&gt;\nhttp://www.rapidhdd.com/images/386592vlcsnap-2010-11-15-12h24m22s136.png&lt;/a&gt;\n &lt;a href=&quot;\nhttp://rapidhdd.com/images/556274vlcsnap-2010-11-15-08h14m31s234.png&quot; rel=&quot;nofollow&quot; target=&quot;_NEW&quot;&gt;\nhttp://rapidhdd.com/images/556274vlcsnap-2010-11-15-08h14m31s234.png&lt;/a&gt;\n &lt;a href=&quot;\nhttp://www.rapidhdd.com/images/475076vlcsnap-2010-11-15-12h22m54s12.png&quot; rel=&quot;nofollow&quot; target=&quot;_NEW&quot;&gt;\nhttp://www.rapidhdd.com/images/475076vlcsnap-2010-11-15-12h22m54s12.png&lt;/a&gt; &lt;a href=&quot;\nhttp://www.rapidhdd.com/images/481642vlcsnap-2010-11-15-12h22m48s215.png&quot; rel=&quot;nofollow&quot; target=&quot;_NEW&quot;&gt;\nhttp://www.rapidhdd.com/images/481642vlcsnap-2010-11-15-12h22m48s215.png&lt;/a&gt; &lt;a href=&quot;\nhttp://www.rapidhdd.com/images/889439vlcsnap-2010-11-15-12h24m36s12.png&quot; rel=&quot;nofollow&quot; target=&quot;_NEW&quot;&gt;\nhttp://www.rapidhdd.com/images/889439vlcsnap-2010-11-15-12h24m36s12.png&lt;/a&gt;","torrent":{"xt":"urn:btih:62ee62c943c5a55342a4820275cb50953ab18c46","amp;dn":"The.Four.Faced.Liar.2010.DvDRip.H264.Feel-Free","amp;tr":["udp%3A%2F%2Ftracker.openbittorrent.com%3A80","udp%3A%2F%2Fopen.demonii.com%3A1337","udp%3A%2F%2Ftracker.coppersurfer.tk%3A6969","udp%3A%2F%2Fexodus.desync.com%3A6969"],"infoHash":"62ee62c943c5a55342a4820275cb50953ab18c46","infoHashBuffer":{"type":"Buffer","data":[98,238,98,201,67,197,165,83,66,164,130,2,117,203,80,149,58,177,140,70]},"announce":[],"urlList":[]}}